<mxfile host="app.diagrams.net" modified="2021-04-09T02:09:44.667Z" agent="5.0 (Windows NT 10.0; Win64; x64) AppleWebKit/537.36 (KHTML, like Gecko) Chrome/88.0.4324.104 Safari/537.36" etag="QaSoKvWL0q-BhvYDK3H7" version="14.5.8" type="github">
  <diagram name="Page-1" id="c7558073-3199-34d8-9f00-42111426c3f3">
    <mxGraphModel dx="1422" dy="794" grid="1" gridSize="10" guides="1" tooltips="1" connect="1" arrows="1" fold="1" page="1" pageScale="1" pageWidth="826" pageHeight="1169" background="#ffffff" math="0" shadow="0">
      <root>
        <mxCell id="0" />
        <mxCell id="1" parent="0" />
        <mxCell id="7dQ6YWvsDP0tPu-i0R7l-101" style="edgeStyle=orthogonalEdgeStyle;rounded=0;orthogonalLoop=1;jettySize=auto;html=1;exitX=1;exitY=0.25;exitDx=0;exitDy=0;entryX=0;entryY=0.25;entryDx=0;entryDy=0;" edge="1" parent="1" source="7dQ6YWvsDP0tPu-i0R7l-109" target="7dQ6YWvsDP0tPu-i0R7l-111">
          <mxGeometry relative="1" as="geometry">
            <mxPoint x="250" y="285" as="sourcePoint" />
            <mxPoint x="520" y="285" as="targetPoint" />
          </mxGeometry>
        </mxCell>
        <mxCell id="7dQ6YWvsDP0tPu-i0R7l-103" value="&lt;b&gt;&lt;font style=&quot;font-size: 14px&quot;&gt;Request&lt;/font&gt;&lt;/b&gt;" style="edgeLabel;html=1;align=center;verticalAlign=middle;resizable=0;points=[];" vertex="1" connectable="0" parent="7dQ6YWvsDP0tPu-i0R7l-101">
          <mxGeometry x="-0.0741" relative="1" as="geometry">
            <mxPoint as="offset" />
          </mxGeometry>
        </mxCell>
        <mxCell id="7dQ6YWvsDP0tPu-i0R7l-102" style="edgeStyle=orthogonalEdgeStyle;rounded=0;orthogonalLoop=1;jettySize=auto;html=1;entryX=1;entryY=0.75;entryDx=0;entryDy=0;exitX=0;exitY=0.75;exitDx=0;exitDy=0;" edge="1" parent="1" source="7dQ6YWvsDP0tPu-i0R7l-111" target="7dQ6YWvsDP0tPu-i0R7l-109">
          <mxGeometry relative="1" as="geometry">
            <mxPoint x="520" y="315" as="sourcePoint" />
            <mxPoint x="250" y="315" as="targetPoint" />
          </mxGeometry>
        </mxCell>
        <mxCell id="7dQ6YWvsDP0tPu-i0R7l-104" value="&lt;b&gt;&lt;font style=&quot;font-size: 14px&quot;&gt;Response&lt;/font&gt;&lt;/b&gt;" style="edgeLabel;html=1;align=center;verticalAlign=middle;resizable=0;points=[];" vertex="1" connectable="0" parent="7dQ6YWvsDP0tPu-i0R7l-102">
          <mxGeometry x="-0.2519" y="2" relative="1" as="geometry">
            <mxPoint as="offset" />
          </mxGeometry>
        </mxCell>
        <mxCell id="7dQ6YWvsDP0tPu-i0R7l-97" value="&lt;b&gt;&lt;font style=&quot;font-size: 18px&quot;&gt;Kafka&lt;/font&gt;&lt;/b&gt;" style="shape=cylinder3;whiteSpace=wrap;html=1;boundedLbl=1;backgroundOutline=1;size=15;sketch=1;fillColor=#999999;strokeColor=#990000;fillStyle=dots;" vertex="1" parent="1">
          <mxGeometry x="350" y="360" width="63" height="90" as="geometry" />
        </mxCell>
        <mxCell id="7dQ6YWvsDP0tPu-i0R7l-105" value="" style="curved=1;endArrow=classic;html=1;exitX=1;exitY=0.5;exitDx=0;exitDy=0;exitPerimeter=0;" edge="1" parent="1" source="7dQ6YWvsDP0tPu-i0R7l-97">
          <mxGeometry width="50" height="50" relative="1" as="geometry">
            <mxPoint x="500" y="400" as="sourcePoint" />
            <mxPoint x="558" y="331" as="targetPoint" />
            <Array as="points">
              <mxPoint x="550" y="400" />
            </Array>
          </mxGeometry>
        </mxCell>
        <mxCell id="7dQ6YWvsDP0tPu-i0R7l-108" value="&lt;b&gt;&lt;font style=&quot;font-size: 14px&quot;&gt;Receive Message&lt;/font&gt;&lt;/b&gt;" style="edgeLabel;html=1;align=center;verticalAlign=middle;resizable=0;points=[];" vertex="1" connectable="0" parent="7dQ6YWvsDP0tPu-i0R7l-105">
          <mxGeometry x="-0.1281" y="10" relative="1" as="geometry">
            <mxPoint as="offset" />
          </mxGeometry>
        </mxCell>
        <mxCell id="7dQ6YWvsDP0tPu-i0R7l-106" value="" style="curved=1;endArrow=classic;html=1;entryX=0;entryY=0.5;entryDx=0;entryDy=0;entryPerimeter=0;exitX=0.5;exitY=1;exitDx=0;exitDy=0;" edge="1" parent="1" target="7dQ6YWvsDP0tPu-i0R7l-97">
          <mxGeometry width="50" height="50" relative="1" as="geometry">
            <mxPoint x="205" y="330" as="sourcePoint" />
            <mxPoint x="250" y="380" as="targetPoint" />
            <Array as="points">
              <mxPoint x="200" y="380" />
            </Array>
          </mxGeometry>
        </mxCell>
        <mxCell id="7dQ6YWvsDP0tPu-i0R7l-107" value="&lt;font style=&quot;font-size: 14px&quot;&gt;Send Message&lt;/font&gt;" style="edgeLabel;html=1;align=center;verticalAlign=middle;resizable=0;points=[];fontStyle=1" vertex="1" connectable="0" parent="7dQ6YWvsDP0tPu-i0R7l-106">
          <mxGeometry x="0.0427" y="8" relative="1" as="geometry">
            <mxPoint as="offset" />
          </mxGeometry>
        </mxCell>
        <mxCell id="7dQ6YWvsDP0tPu-i0R7l-109" value="&lt;b&gt;&lt;font style=&quot;font-size: 20px&quot;&gt;Service&lt;/font&gt;&lt;/b&gt;" style="rounded=1;whiteSpace=wrap;html=1;strokeWidth=2;fillWeight=4;hachureGap=8;hachureAngle=45;fillColor=#1ba1e2;sketch=1;fontSize=14;" vertex="1" parent="1">
          <mxGeometry x="130" y="270" width="120" height="60" as="geometry" />
        </mxCell>
        <mxCell id="7dQ6YWvsDP0tPu-i0R7l-111" value="&lt;b&gt;&lt;font style=&quot;font-size: 20px&quot;&gt;Service&lt;/font&gt;&lt;/b&gt;" style="rounded=1;whiteSpace=wrap;html=1;strokeWidth=2;fillWeight=4;hachureGap=8;hachureAngle=45;fillColor=#1ba1e2;sketch=1;fontSize=14;" vertex="1" parent="1">
          <mxGeometry x="520" y="270" width="120" height="60" as="geometry" />
        </mxCell>
      </root>
    </mxGraphModel>
  </diagram>
</mxfile>
